<?xml version="1.0" encoding="UTF-8"?>
<svg xmlns="http://www.w3.org/2000/svg" id="Layer_1" data-name="Layer 1" viewBox="0 0 24 24" style="fill: #7A4FBA">
  <path d="M20.028,11.823c-.008-.172-.104-.327-.254-.411-.083-.047-2.053-1.134-4.226-.624-1.536,.362-2.935,1.329-3.549,1.8-.614-.471-2.013-1.438-3.549-1.8-2.173-.508-4.143,.577-4.226,.624-.149,.084-.246,.239-.254,.411-.073,1.458-.287,6.275,.037,7.057,.929,2.225,7.158,3.914,7.864,4.103,.113,.03,.212,.011,.254,0,.707-.186,6.936-1.878,7.864-4.104,.324-.781,.11-5.599,.037-7.057Zm-15.095,6.676c-.157-.441-.112-3.511,.022-6.333,.529-.239,1.859-.735,3.267-.404,1.442,.339,2.806,1.335,3.277,1.705v8.375c-2.501-.724-6.056-2.12-6.566-3.343Zm14.134-.004c-.512,1.227-4.066,2.623-6.567,3.347V13.467c.471-.37,1.831-1.364,3.277-1.705,1.388-.328,2.732,.166,3.267,.405,.135,2.821,.18,5.89,.023,6.328Z"/>
  <path d="M12.003,9.2c2.622-.016,4.033-1.431,4.082-4.109-.045-2.621-1.495-4.074-4.088-4.091-2.623,.017-4.082,1.449-4.082,4.109,0,2.616,1.46,4.076,4.088,4.091Zm-.006-7.2c2.042,.013,3.053,1.03,3.088,3.091-.039,2.138-.991,3.097-3.082,3.109-2.065-.012-3.047-.997-3.088-3.1,.04-2.102,1.021-3.087,3.082-3.1Z"/>
</svg>
