<?xml version="1.0" encoding="UTF-8"?>
<svg xmlns="http://www.w3.org/2000/svg" version="1.1" viewBox="0 0 512 512" style="fill: #7A4FBA">
  <!-- Generator: Adobe Illustrator 28.7.1, SVG Export Plug-In . SVG Version: 1.2.0 Build 142)  -->
  <g>
    <g id="Layer_1">
      <g>
        <path d="M465.5,165.4H10c-5.6,0-10.1-4.5-10.1-10.1s4.5-10.1,10.1-10.1h455.5c5.6,0,10.1,4.5,10.1,10.1s-4.5,10.1-10.1,10.1Z"/>
        <path d="M93.5,122.9c-18.7,0-33.8-15.2-33.8-33.8s15.2-33.8,33.8-33.8,33.9,15.2,33.9,33.8-15.2,33.8-33.9,33.8ZM93.5,75.4c-7.5,0-13.7,6.1-13.7,13.7s6.1,13.7,13.7,13.7,13.7-6.1,13.7-13.7-6.1-13.7-13.7-13.7Z"/>
        <path d="M389.4,122.9h-89.5c-18.7,0-33.8-15.2-33.8-33.8s15.2-33.8,33.8-33.8h89.5c18.7,0,33.8,15.2,33.8,33.8s-15.2,33.8-33.8,33.8ZM300,75.4c-7.5,0-13.7,6.1-13.7,13.7s6.1,13.7,13.7,13.7h89.5c7.5,0,13.7-6.1,13.7-13.7s-6.1-13.7-13.7-13.7h-89.5Z"/>
        <path d="M181.2,122.9c-18.7,0-33.8-15.2-33.8-33.8s15.2-33.8,33.8-33.8,33.9,15.2,33.9,33.8-15.2,33.8-33.9,33.8ZM181.2,75.4c-7.5,0-13.7,6.1-13.7,13.7s6.1,13.7,13.7,13.7,13.7-6.1,13.7-13.7-6.1-13.7-13.7-13.7Z"/>
        <path d="M142.4,326.1c-.8,0-1.6,0-2.4-.3-5.4-1.3-8.8-6.7-7.5-12.2l20-83.7c1.3-5.4,6.7-8.8,12.2-7.5,5.4,1.3,8.8,6.7,7.5,12.2l-20,83.7c-1.1,4.6-5.2,7.7-9.8,7.7Z"/>
        <path d="M208.5,318.5c-2.4,0-4.8-.8-6.7-2.6-4.2-3.7-4.5-10.1-.8-14.2l24.6-27.6-24.6-27.6c-3.7-4.2-3.3-10.5.8-14.2,4.2-3.7,10.5-3.3,14.2.8l28.3,31.8c4.6,5.2,4.6,13.3,0,18.5l-28.3,31.8c-2,2.2-4.8,3.4-7.5,3.4ZM229.3,278.3s0,0,0,0h0ZM229.3,269.9s0,0,0,0h0Z"/>
        <path d="M96.3,318.5c-2.8,0-5.5-1.1-7.5-3.4l-28.3-31.8c-4.6-5.2-4.6-13.3,0-18.5l28.3-31.8c3.7-4.2,10.1-4.5,14.2-.8,4.2,3.7,4.5,10.1.8,14.2l-24.6,27.6,24.6,27.6c3.7,4.2,3.3,10.5-.8,14.2-1.9,1.7-4.3,2.6-6.7,2.6ZM75.6,278.3h0s0,0,0,0ZM75.5,269.9h0s0,0,0,0Z"/>
        <path d="M392.4,500.1h-18.3c-12.5,0-22.6-10.1-22.6-22.6v-3.9c-6.3-1.9-12.4-4.5-18.2-7.6l-2.7,2.7c-4.3,4.3-9.9,6.6-16,6.6h0c-6,0-11.7-2.4-16-6.6l-12.9-12.9c-8.8-8.8-8.8-23.1,0-31.9l2.7-2.7c-3.1-5.8-5.6-11.9-7.5-18.2h-3.9c-12.5,0-22.6-10.1-22.6-22.6v-18.3c0-12.5,10.1-22.6,22.6-22.6h3.8c1.9-6.2,4.4-12.2,7.4-18l-2.8-2.8c-4.2-4.2-6.6-9.9-6.6-15.9,0-6.1,2.3-11.7,6.6-16l12.9-12.9c4.3-4.3,9.9-6.6,16-6.6h0c6,0,11.7,2.4,16,6.6l2.6,2.6c5.8-3.1,11.9-5.7,18.2-7.6v-3.8c0-12.5,10.1-22.6,22.6-22.6h18.3c12.5,0,22.6,10.1,22.6,22.6v3.6c6.4,2,12.7,4.5,18.6,7.7l2.7-2.7c4.2-4.2,9.9-6.6,15.9-6.6h0c6,0,11.7,2.3,16,6.6l12.9,12.9c4.3,4.3,6.6,10,6.6,16,0,6-2.4,11.7-6.6,16l-2.7,2.7c3.1,5.9,5.6,12,7.6,18.4h3.7c12.5,0,22.6,10.1,22.6,22.6v18.3c0,12.5-10.1,22.6-22.6,22.6h-3.8c-1.9,6.3-4.5,12.3-7.5,18.2l2.7,2.7c4.3,4.3,6.6,10,6.6,16,0,6-2.4,11.7-6.6,16l-12.9,12.9c-4.3,4.3-9.9,6.6-16,6.6h0c-6,0-11.7-2.4-16-6.6l-2.7-2.7c-5.9,3.1-12,5.6-18.3,7.6v3.9c0,12.5-10.1,22.6-22.6,22.6ZM331.6,443.3c1.8,0,3.7.5,5.3,1.5,8.4,5.2,17.4,9,26.9,11.1,4.6,1,7.9,5.1,7.9,9.8v11.6c0,1.3,1.1,2.4,2.4,2.4h18.3c1.3,0,2.4-1.1,2.4-2.4v-11.6c0-4.7,3.3-8.8,7.9-9.8,9.6-2.2,18.6-5.9,26.9-11.1,4-2.5,9.2-1.9,12.5,1.4l8.2,8.2c.6.6,1.3.7,1.7.7h0c.4,0,1.1,0,1.7-.7l12.9-12.9c.6-.6.7-1.2.7-1.7,0-.4,0-1.1-.7-1.7l-8.2-8.2c-3.3-3.3-3.9-8.5-1.4-12.5,5.2-8.3,8.9-17.3,11.1-26.8,1.1-4.6,5.1-7.8,9.8-7.8h11.5c1.3,0,2.4-1.1,2.4-2.4v-18.3c0-1.3-1.1-2.4-2.4-2.4h-11.5c-4.7,0-8.8-3.3-9.8-7.9-2.2-9.6-5.9-18.6-11.2-26.9-2.5-4-1.9-9.2,1.4-12.5l8.2-8.2c.6-.6.7-1.2.7-1.7,0-.4,0-1.1-.7-1.7l-12.9-12.9c-.6-.6-1.3-.7-1.7-.7h0c-.5,0-1.1.1-1.7.7l-8.2,8.2c-3.3,3.3-8.5,3.9-12.5,1.4-8.5-5.3-17.6-9.1-27.2-11.2-4.6-1-7.9-5.1-7.9-9.8v-11.4c0-1.3-1.1-2.4-2.4-2.4h-18.3c-1.3,0-2.4,1.1-2.4,2.4v11.5c0,4.7-3.2,8.8-7.8,9.8-9.5,2.2-18.6,6-26.8,11.2-4,2.5-9.2,2-12.5-1.4l-8.1-8.1c-.6-.6-1.3-.7-1.7-.7h0c-.4,0-1.1,0-1.7.7l-12.9,12.9c-.6.6-.7,1.3-.7,1.7,0,.5.1,1.1.7,1.7l8.3,8.3c3.3,3.3,3.9,8.5,1.4,12.5-5.1,8.2-8.8,17.2-11,26.7-1,4.6-5.1,7.8-9.8,7.8h-11.6c-1.3,0-2.4,1.1-2.4,2.4v18.3c0,1.3,1.1,2.4,2.4,2.4h11.6c4.7,0,8.8,3.3,9.8,7.8,2.2,9.5,5.9,18.5,11.1,26.8,2.5,4,1.9,9.2-1.4,12.5l-8.2,8.2c-.9.9-.9,2.5,0,3.4l12.9,12.9c.6.6,1.2.7,1.7.7h0c.4,0,1.1,0,1.7-.7l8.2-8.2c1.9-1.9,4.5-3,7.1-3Z"/>
        <path d="M383.2,432.9c-34,0-61.7-27.6-61.7-61.6s27.7-61.6,61.7-61.6,61.6,27.6,61.6,61.6-27.6,61.6-61.6,61.6ZM383.2,329.8c-22.9,0-41.5,18.6-41.5,41.4s18.6,41.4,41.5,41.4,41.4-18.6,41.4-41.4-18.6-41.4-41.4-41.4Z"/>
        <path d="M277,403h-81.2c-5.6,0-10.1-4.5-10.1-10.1s4.5-10.1,10.1-10.1h81.2c5.6,0,10.1,4.5,10.1,10.1s-4.5,10.1-10.1,10.1ZM106.4,403h-59.2C21.1,403,0,378.5,0,348.4V66.5C0,36.4,21.1,11.9,47.2,11.9h381c26.1,0,47.3,24.5,47.3,54.6v219.1c0,5.6-4.5,10.1-10.1,10.1s-10.1-4.5-10.1-10.1V66.5c0-18.6-12.4-34.4-27.2-34.4H47.2c-14.7,0-27.2,15.7-27.2,34.4v282c0,18.6,12.4,34.4,27.2,34.4h59.2c5.6,0,10.1,4.5,10.1,10.1s-4.5,10.1-10.1,10.1Z"/>
        <path d="M151.4,403h-.2c-5.6,0-10.1-4.5-10.1-10.1s4.5-10.1,10.1-10.1h.2c5.6,0,10.1,4.5,10.1,10.1s-4.5,10.1-10.1,10.1Z"/>
      </g>
    </g>
  </g>
</svg>
