<?xml version="1.0" encoding="UTF-8"?>
<svg xmlns="http://www.w3.org/2000/svg" xmlns:xlink="http://www.w3.org/1999/xlink" version="1.1" viewBox="0 0 512 512">
  <defs>
    <style>
      .cls-1 {
        fill: url(#linear-gradient);
      }
    </style>
    <linearGradient id="linear-gradient" x1="0" y1="256" x2="512" y2="256" gradientUnits="userSpaceOnUse">
      <stop offset="0" stop-color="#47caff"/>
      <stop offset="1" stop-color="#bd34fe"/>
    </linearGradient>
  </defs>
  <!-- Generator: Adobe Illustrator 28.7.1, SVG Export Plug-In . SVG Version: 1.2.0 Build 142)  -->
  <g>
    <g id="Layer_1">
      <path class="cls-1" d="M504.5,49.69h-233.74V7.5c0-4.14-3.36-7.5-7.5-7.5h-46.79c-4.14,0-7.5,3.36-7.5,7.5v42.19h-91.78c-4.14,0-7.5,3.36-7.5,7.5v64.48c-4.95,2.64-9.64,6.11-13.59,10.1v-22.04c0-13.6-13.53-24.76-33.65-28.47v-16.28c0-4.14-3.36-7.5-7.5-7.5-13.28,0-26.78,5.1-37.04,14.01C6.36,81.51,0,95.41,0,110.65v31.42C0,151.77,15,151.77,15,142.07v-31.42c0-16.42,12.22-34,32.45-37.53v287.7c-11.77,1.47-23.79,6.18-32.42,14.47-.02-10.21-.03-193.37-.03-193.37C15,172.23,0,172.23,0,181.92v232.96c0,.42.04.83.11,1.23.74,22,21.09,38.44,47.94,38.44,13,0,24.63-3.7,33.2-9.8v27.57c0,25.34,25.35,39.66,48.06,39.66,24.1,0,48.04-13.58,48.04-39.68l-.02-106.04h213.59l-155.63,132.51c-5.2,4.43-1.97,13.21,4.86,13.21h225.87c4.14,0,7.5-3.36,7.5-7.5v-36.38c0-9.7-15-9.7-15,0v28.88h-197.99l197.99-168.57v98.31c0,9.7,15,9.7,15,0v-60.46h30.98c4.14,0,7.5-3.36,7.5-7.5V57.19c0-4.14-3.36-7.5-7.5-7.5ZM497,64.69v181.91h-175.65V64.69h175.65ZM255.76,15v191.95h-31.79v-19.17h5.45c9.7,0,9.7-15,0-15h-5.45v-19.65h12.45c9.7,0,9.7-15,0-15h-12.45v-19.65h5.45c4.14,0,7.5-3.36,7.5-7.5s-3.36-7.5-7.5-7.5h-5.45v-19.65h12.45c9.7,0,9.7-15,0-15h-12.45v-19.65h5.45c9.7,0,9.7-15,0-15h-5.45V15h31.79ZM118.46,133.78c3.24-1.53,6.63-2.61,10.19-3.22l.05,287.7c-8.35,1.05-21.86,4.33-32.42,14.48-.02-10.07-.03-17.87-.03-18.08l-.04-246.57c0-13.44,8.19-27.65,22.26-34.31h0ZM162.34,450.43c-.25-.14-.51-.29-.77-.43-8.6-4.72-19.83-7.36-31.69-7.44v-9.32c3.59-.49,6.01-.46,6.06-.46,4.7-.31,7.27-2.81,7.74-7.5l-.04-271.2c9.94,2.46,18.65,7.5,18.65,13.08l.05,283.27ZM81.1,109.73v283.17c-8.36-4.8-19.65-7.69-32.45-7.77v-9.33c3.6-.49,6.01-.46,6.07-.46,4.7-.31,7.28-2.81,7.74-7.5V96.6c11.42,2.74,18.65,8.41,18.65,13.13ZM81.1,418.44c0,11.45-15.14,21.12-33.05,21.12-18.8,0-32.97-10.61-32.97-24.67s5.16-27.73,18.57-34.55v12.61c.53,4.91,3.27,7.39,8.2,7.47,10.42-.98,21.94.18,31.26,5.3,5.38,2.95,8.42,6.7,7.99,12.72ZM129.3,497h0c-18.79,0-32.97-10.6-32.97-24.67,0-14.24,5.16-27.74,18.57-34.55v12.61c.54,4.9,3.27,7.39,8.21,7.46,12.72-1.2,39.86.85,39.25,18.02,0,11.45-15.13,21.12-33.04,21.13h0ZM177.3,167.16c0-13.5-13.57-24.73-33.65-28.46v-16.29c-.43-4.57-2.93-7.07-7.5-7.5-3.83,0-7.67.44-11.45,1.26v-51.48h84.28v149.75c0,4.14,3.36,7.5,7.5,7.5h46.79c4.14,0,7.5-3.36,7.5-7.5V64.69h35.58v286.59h-129.02l-.03-184.12ZM469.16,305.39c-2.66-1.23-5.78-.8-8.01,1.1l-52.62,44.8h-87.19v-89.68h175.65v89.68h-23.48v-39.09c0-2.92-1.7-5.58-4.36-6.81h0ZM357.34,214.92h69.11c1.97,0,3.92-.81,5.31-2.21l34.55-34.52c1.41-1.41,2.2-3.32,2.2-5.31v-69.01c-.01-4.06-3.45-7.5-7.51-7.5h-69.11c-1.99,0-3.89.8-5.3,2.2l-34.54,34.51c-1.39,1.39-2.2,3.34-2.2,5.31v69.02c0,4.14,3.36,7.5,7.5,7.5h0ZM364.84,145.9h54.11v54.02h-54.11v-54.02ZM433.95,189.32v-47.81l19.56-19.54v47.81s-19.56,19.55-19.56,19.55ZM394.99,111.38h47.89s-19.54,19.52-19.54,19.52h-47.89l19.53-19.52ZM392.81,314.09h-24.85c-9.7,0-9.7,15,0,15h24.85c9.7,0,9.7-15,0-15ZM431.64,284.24h-63.68c-9.7,0-9.7,15,0,15h63.68c9.7,0,9.7-15,0-15ZM424.73,385.31l-90.55,77.1c-5.2,4.43-1.97,13.21,4.86,13.21h90.55c4.14,0,7.5-3.36,7.5-7.5v-77.1c0-5.7-7.2-10.11-12.36-5.71ZM422.09,460.62h-62.68l62.68-53.36v53.36Z"/>
    </g>
  </g>
</svg>