<?xml version="1.0" encoding="UTF-8"?>
<svg xmlns="http://www.w3.org/2000/svg" xmlns:xlink="http://www.w3.org/1999/xlink" version="1.1" viewBox="0 0 512 512">
  <defs>
    <style>
      .cls-1 {
        fill: url(#linear-gradient);
      }
    </style>
    <linearGradient id="linear-gradient" x1="0" y1="256" x2="512" y2="256" gradientUnits="userSpaceOnUse">
      <stop offset="0" stop-color="#47caff"/>
      <stop offset="1" stop-color="#bd34fe"/>
    </linearGradient>
  </defs>
  <!-- Generator: Adobe Illustrator 28.7.1, SVG Export Plug-In . SVG Version: 1.2.0 Build 142)  -->
  <g>
    <g id="Layer_1">
      <path class="cls-1" d="M406.42,124.58v1.51c0,4.14,3.36,7.5,7.5,7.5s7.5-3.36,7.5-7.5v-1.51c0-5.3-1.87-10.43-5.28-14.48-2.7-3.14-7.44-3.5-10.58-.8-3.1,2.66-3.5,7.31-.9,10.46,1.14,1.35,1.76,3.06,1.76,4.82ZM413.92,180.59c-4.14,0-7.5,3.36-7.5,7.5v12c0,4.14,3.36,7.5,7.5,7.5s7.5-3.36,7.5-7.5v-12c0-4.14-3.36-7.5-7.5-7.5ZM421.42,151.09c0-4.14-3.36-7.5-7.5-7.5s-7.5,3.36-7.5,7.5v12c0,4.14,3.36,7.5,7.5,7.5s7.5-3.36,7.5-7.5v-12ZM292,463.39h-12c-4.14,0-7.5,3.36-7.5,7.5s3.36,7.5,7.5,7.5h12c4.14,0,7.5-3.36,7.5-7.5s-3.36-7.5-7.5-7.5ZM255,463.39h-12c-4.14,0-7.5,3.36-7.5,7.5s3.36,7.5,7.5,7.5h12c4.14,0,7.5-3.36,7.5-7.5s-3.36-7.5-7.5-7.5ZM218,463.39h-12c-4.14,0-7.5,3.36-7.5,7.5s3.36,7.5,7.5,7.5h12c4.14,0,7.5-3.36,7.5-7.5s-3.36-7.5-7.5-7.5ZM181,463.39h-12c-4.14,0-7.5,3.36-7.5,7.5s3.36,7.5,7.5,7.5h12c4.14,0,7.5-3.36,7.5-7.5s-3.36-7.5-7.5-7.5ZM147.1,462.8c-1.86-.8-3.33-2.31-4.06-4.2-1.49-3.86-5.84-5.78-9.7-4.29-3.86,1.49-5.78,5.84-4.29,9.7,2.2,5.66,6.59,10.2,12.17,12.59.93.4,1.93.6,2.94.6,4.14,0,7.5-3.36,7.5-7.5,0-3-1.79-5.72-4.56-6.9h0ZM135.04,443.93c4.14,0,7.5-3.36,7.5-7.5h0v-12c0-4.14-3.36-7.5-7.5-7.5s-7.5,3.36-7.5,7.5h0v12c0,4.14,3.36,7.5,7.5,7.5h0ZM169.22,172.24h-104.02c-4.14,0-7.5,3.36-7.5,7.5s3.36,7.5,7.5,7.5h104.02c4.14,0,7.5-3.36,7.5-7.5s-3.36-7.5-7.5-7.5ZM169.22,208.58h-104.02c-4.14,0-7.5,3.36-7.5,7.5s3.36,7.5,7.5,7.5h104.02c4.14,0,7.5-3.36,7.5-7.5s-3.36-7.5-7.5-7.5ZM169.22,244.76h-104.02c-4.14,0-7.5,3.37-7.49,7.51,0,4.13,3.36,7.48,7.49,7.49h104.02c4.14,0,7.5-3.36,7.5-7.5s-3.36-7.5-7.5-7.5h0ZM176.72,288.76c0-4.14-3.36-7.5-7.5-7.5h-104.02c-4.14,0-7.5,3.36-7.5,7.5s3.36,7.5,7.5,7.5h104.02c4.14,0,7.5-3.36,7.5-7.5ZM65.2,317.59c-4.14,0-7.5,3.36-7.5,7.5s3.36,7.5,7.5,7.5h46.63c4.14,0,7.5-3.36,7.5-7.5s-3.36-7.5-7.5-7.5h-46.63ZM217.69,395.74c1.46,1.46,3.38,2.2,5.3,2.2s3.84-.73,5.3-2.2l30.27-30.27c2.93-2.93,2.93-7.68,0-10.61-2.93-2.93-7.68-2.93-10.61,0l-24.97,24.97-17.51-17.51c-2.93-2.93-7.68-2.93-10.61,0-2.93,2.93-2.93,7.68,0,10.61l22.81,22.81ZM337.01,195.94c6.98-5.46,13.27-11.75,18.73-18.73,4.11-5.25,3.64-12.78-1.1-17.51l-13.67-13.67c1.8-3.56,3.32-7.24,4.56-11.03h19.34c6.7,0,12.35-4.99,13.16-11.61.25-2.09.45-4.2.58-6.31h8.39c4.14,0,7.5-3.36,7.5-7.5s-3.36-7.5-7.5-7.5h-8.47c-.12-1.73-.29-3.46-.49-5.18-.81-6.62-6.46-11.61-13.16-11.61h-19.34c-1.24-3.78-2.77-7.47-4.56-11.03l13.67-13.67c4.73-4.74,5.2-12.26,1.1-17.51-5.46-6.98-11.75-13.27-18.73-18.73-5.25-4.11-12.78-3.64-17.52,1.09l-13.67,13.67c-3.56-1.8-7.24-3.32-11.02-4.56V15.21c0-6.7-4.99-12.35-11.61-13.16-8.8-1.07-17.69-1.07-26.49,0-6.62.81-11.61,6.46-11.61,13.16v19.34c-3.78,1.24-7.47,2.77-11.03,4.56l-13.67-13.67c-4.74-4.74-12.27-5.21-17.51-1.1-6.98,5.46-13.27,11.75-18.73,18.73-4.11,5.25-3.64,12.78,1.1,17.52l13.67,13.67c-1.8,3.56-3.32,7.24-4.57,11.03h-19.34c-6.7,0-12.35,4.99-13.16,11.61-.21,1.72-.37,3.45-.49,5.18H56.18c-4.67,0-9.07,1.82-12.38,5.13L5.12,145.88c-3.29,3.27-5.14,7.73-5.12,12.37v216.14c0,9.65,7.85,17.5,17.5,17.5h110.04v7.53c0,4.14,3.36,7.5,7.5,7.5s7.5-3.36,7.5-7.5h0v-7.53h20.48c7.88,27.77,33.45,48.17,63.71,48.17,36.52,0,66.23-29.71,66.23-66.23,0-33.92-25.63-61.94-58.54-65.77v-34.07c0-4.14-3.36-7.5-7.5-7.5s-7.5,3.36-7.5,7.5v34.02c-33.09,3.65-58.92,31.77-58.92,65.82,0,1.03.03,2.05.08,3.06H17.5c-1.38,0-2.5-1.12-2.5-2.5v-216.14c0-.66.27-1.3.73-1.77l38.68-38.68c.47-.47,1.1-.73,1.77-.73h105.09c.13,2.11.32,4.22.58,6.31.81,6.62,6.46,11.61,13.16,11.61h19.34c1.24,3.78,2.77,7.47,4.57,11.03l-13.67,13.67c-4.74,4.73-5.21,12.26-1.1,17.52,5.46,6.98,11.75,13.27,18.73,18.73,4.9,3.84,11.8,3.68,16.54-.22v43.27c0,4.14,3.36,7.5,7.5,7.5s7.5-3.36,7.5-7.5v-57.65c3.45,1.72,7.01,3.19,10.67,4.39v19.34c0,6.7,4.99,12.35,11.61,13.16,4.38.53,8.83.8,13.25.8s8.87-.27,13.25-.8c6.62-.8,11.61-6.46,11.61-13.16v-19.34c3.78-1.24,7.47-2.77,11.03-4.56l13.67,13.67c4.74,4.73,12.27,5.21,17.52,1.1h0ZM226.72,322.6c28.25,0,51.23,22.98,51.23,51.23s-22.98,51.23-51.23,51.23-51.23-22.98-51.23-51.23,22.98-51.23,51.23-51.23h0ZM299.94,167.33c-3.45,1.81-7.06,3.3-10.78,4.46-5.6,1.74-9.37,6.83-9.37,12.66v19.07c-6.55.68-13.16.68-19.71,0v-19.07c0-5.83-3.77-10.92-9.37-12.66-3.72-1.16-7.33-2.65-10.77-4.46-5.2-2.73-11.46-1.79-15.58,2.33l-13.48,13.48c-5.12-4.15-9.79-8.82-13.94-13.94l13.48-13.48c4.12-4.12,5.06-10.38,2.33-15.58-1.81-3.45-3.3-7.06-4.46-10.78-1.74-5.6-6.83-9.37-12.66-9.37h-19.07c-.34-3.26-.51-6.57-.51-9.85s.17-6.59.51-9.85h19.07c5.83,0,10.92-3.76,12.66-9.37,1.16-3.72,2.65-7.33,4.46-10.78,2.73-5.2,1.79-11.46-2.33-15.58l-13.48-13.48c4.15-5.12,8.82-9.79,13.94-13.94l13.48,13.48c4.12,4.12,10.38,5.06,15.58,2.33,3.45-1.81,7.06-3.3,10.77-4.46,5.6-1.74,9.37-6.83,9.37-12.66v-19.07c6.55-.68,13.16-.68,19.71,0v19.07c0,5.83,3.77,10.92,9.37,12.66,3.72,1.16,7.33,2.65,10.78,4.46,5.2,2.73,11.46,1.79,15.58-2.33l13.48-13.48c5.12,4.15,9.79,8.82,13.94,13.94l-13.48,13.48h0c-4.12,4.12-5.06,10.39-2.33,15.58,1.81,3.45,3.3,7.06,4.46,10.78,1.74,5.61,6.83,9.37,12.66,9.37h19.07c.34,3.27.52,6.58.52,9.85s-.17,6.59-.52,9.85h-19.07c-5.83,0-10.92,3.77-12.66,9.37-1.16,3.72-2.65,7.33-4.46,10.77-2.73,5.2-1.8,11.46,2.33,15.58l13.48,13.48c-4.15,5.12-8.82,9.79-13.94,13.94l-13.48-13.48c-4.12-4.13-10.38-5.06-15.58-2.33h0ZM308.46,84.88c-3.79,1.68-5.49,6.11-3.81,9.9,2.15,4.84,3.26,10.07,3.25,15.37,0,20.93-17.03,37.96-37.96,37.96s-37.96-17.03-37.96-37.96,17.03-37.96,37.96-37.96c4.63,0,9.17.83,13.49,2.48,3.87,1.47,8.2-.47,9.68-4.34,1.47-3.87-.47-8.2-4.34-9.68-6.01-2.29-12.39-3.46-18.82-3.46-29.2,0-52.96,23.76-52.96,52.96s23.76,52.96,52.96,52.96,52.96-23.76,52.96-52.96c.01-7.39-1.54-14.7-4.54-21.45-1.68-3.79-6.11-5.49-9.9-3.81h0ZM269.94,86.86c-12.84,0-23.28,10.44-23.28,23.28s10.45,23.28,23.28,23.28,23.28-10.44,23.28-23.28-10.45-23.28-23.28-23.28ZM269.94,118.43c-4.57,0-8.28-3.72-8.28-8.28s3.72-8.28,8.28-8.28,8.28,3.72,8.28,8.28-3.71,8.28-8.28,8.28ZM499.5,321.27c6.89,0,12.5-5.61,12.5-12.5v-54.7c0-6.89-5.61-12.5-12.5-12.5h-79.57c.97-1.29,1.49-2.86,1.49-4.48v-12c0-4.14-3.36-7.5-7.5-7.5s-7.5,3.36-7.5,7.5v12c0,1.68.56,3.23,1.49,4.48h-79.57c-6.89,0-12.5,5.61-12.5,12.5v54.7c0,6.89,5.61,12.5,12.5,12.5h78.08v15.04h-78.08c-6.89,0-12.5,5.61-12.5,12.5v54.7c0,6.89,5.61,12.5,12.5,12.5h78.08v15.04h-78.08c-6.89,0-12.5,5.61-12.5,12.5v19.95c-3.59.56-6.34,3.65-6.34,7.4s2.75,6.84,6.34,7.4v19.95c0,6.89,5.61,12.5,12.5,12.5h171.16c6.89,0,12.5-5.61,12.5-12.5v-54.7c0-6.89-5.61-12.5-12.5-12.5h-78.08v-15.04h19.58c4.14,0,7.5-3.36,7.5-7.5s-3.36-7.5-7.5-7.5h-110.16v-49.7h166.16v49.7h-21c-4.14,0-7.5,3.36-7.5,7.5s3.36,7.5,7.5,7.5h23.5c6.89,0,12.5-5.61,12.5-12.5v-54.7c0-6.89-5.61-12.5-12.5-12.5h-78.08v-15.04h78.08ZM497,446.05v49.7h-166.16v-49.7h166.16ZM330.84,306.27v-49.7h166.16v49.7h-166.16ZM468.92,273.92h-109.99c-4.14,0-7.5,3.36-7.5,7.5s3.36,7.5,7.5,7.5h109.99c4.14,0,7.5-3.36,7.5-7.5s-3.36-7.5-7.5-7.5ZM476.42,376.16c0-4.14-3.36-7.5-7.5-7.5h-109.99c-4.14,0-7.5,3.36-7.5,7.5s3.36,7.5,7.5,7.5h109.99c4.14,0,7.5-3.36,7.5-7.5ZM358.92,478.39h109.99c4.14,0,7.5-3.36,7.5-7.5s-3.36-7.5-7.5-7.5h-109.99c-4.14,0-7.5,3.36-7.5,7.5s3.36,7.5,7.5,7.5Z"/>
    </g>
  </g>
</svg>