<?xml version="1.0" encoding="UTF-8"?>
<svg xmlns="http://www.w3.org/2000/svg" xmlns:xlink="http://www.w3.org/1999/xlink" version="1.1" viewBox="0 0 512 512" style="fill: #7A4FBA">
  <defs>
    <style>
      .cls-1 {
        fill: none;
      }

      .cls-2 {
        clip-path: url(#clippath);
      }
    </style>
    <clipPath id="clippath">
      <rect class="cls-1" width="512" height="512"/>
    </clipPath>
  </defs>
  <!-- Generator: Adobe Illustrator 28.7.1, SVG Export Plug-In . SVG Version: 1.2.0 Build 142)  -->
  <g>
    <g id="Layer_1">
      <g class="cls-2">
        <g>
          <path d="M256,122c-19.3,0-35-15.7-35-35s15.7-35,35-35,35,15.7,35,35-15.7,35-35,35ZM256,67c-11,0-20,9-20,20s9,20,20,20,20-9,20-20-9-20-20-20Z"/>
          <path d="M98.6,195.4c-2.5,0-4.9-1.2-6.3-3.5-2.2-3.5-1.2-8.1,2.3-10.4l132.4-84.9c3.5-2.2,8.1-1.2,10.4,2.3,2.2,3.5,1.2,8.1-2.3,10.4l-132.4,84.9c-1.3.8-2.7,1.2-4,1.2Z"/>
          <path d="M414,195.8c-1.4,0-2.8-.4-4-1.2l-132.4-84.9c-3.5-2.2-4.5-6.9-2.3-10.4,2.2-3.5,6.9-4.5,10.4-2.3l132.4,84.9c3.5,2.2,4.5,6.9,2.3,10.4-1.4,2.2-3.9,3.5-6.3,3.5Z"/>
          <path d="M474.5,460H37.5c-20.7,0-37.5-16.8-37.5-37.5v-203c0-20.7,16.8-37.5,37.5-37.5h437c20.7,0,37.5,16.8,37.5,37.5v30c0,4.1-3.4,7.5-7.5,7.5s-7.5-3.4-7.5-7.5v-30c0-12.4-10.1-22.5-22.5-22.5H37.5c-12.4,0-22.5,10.1-22.5,22.5v203c0,12.4,10.1,22.5,22.5,22.5h437c12.4,0,22.5-10.1,22.5-22.5v-138c0-4.1,3.4-7.5,7.5-7.5s7.5,3.4,7.5,7.5v138c0,20.7-16.8,37.5-37.5,37.5Z"/>
          <path d="M469.5,430H111c-4.1,0-7.5-3.4-7.5-7.5s3.4-7.5,7.5-7.5h356v-188H45v188h31c4.1,0,7.5,3.4,7.5,7.5s-3.4,7.5-7.5,7.5h-33.5c-6.9,0-12.5-5.6-12.5-12.5v-193c0-6.9,5.6-12.5,12.5-12.5h427c6.9,0,12.5,5.6,12.5,12.5v193c0,6.9-5.6,12.5-12.5,12.5Z"/>
          <path d="M362.1,370.2c-4.1,0-7.5-3.4-7.5-7.5v-83.2c0-3.3,2.1-6.2,5.3-7.2,3.1-1,6.5.2,8.4,2.9l44.5,64.5-.6-60.3c0-4.1,3.3-7.5,7.4-7.6h0c4.1,0,7.5,3.3,7.5,7.4l.8,80.5c0,4.4-2.4,7.9-6.1,9.1-3.6,1.1-7.4-.3-9.7-3.7l-42.6-61.7v59.1c0,4.1-3.4,7.5-7.5,7.5Z"/>
          <path d="M326.7,369.8h-34.8c-4.1,0-7.5-3.4-7.5-7.5v-82.6c0-4.1,3.4-7.5,7.5-7.5h34.8c4.1,0,7.5,3.4,7.5,7.5s-3.4,7.5-7.5,7.5h-27.3v67.6h27.3c4.1,0,7.5,3.4,7.5,7.5s-3.4,7.5-7.5,7.5Z"/>
          <path d="M324.2,328.5h-32.2c-4.1,0-7.5-3.4-7.5-7.5s3.4-7.5,7.5-7.5h32.2c4.1,0,7.5,3.4,7.5,7.5s-3.4,7.5-7.5,7.5Z"/>
          <path d="M209.8,370.2c-4.1,0-7.5-3.4-7.5-7.5v-83.4c0-4.1,3.4-7.5,7.5-7.5s7.5,3.4,7.5,7.5v83.4c0,4.1-3.4,7.5-7.5,7.5Z"/>
          <path d="M212.5,334c-4.1,0-7.5-3.3-7.5-7.5,0-4.1,3.3-7.5,7.5-7.5,4.9,0,15.7,0,20.6,0,8.9,0,16.5-7.3,16.5-16s-7.5-16-16.5-16h-7.3c-6.3,0-14.9,0-15.8,0-4.2,0-7.6-3.3-7.6-7.5,0-5.5,4.8-7.5,7.9-7.5h4.9s18,0,18,0c17.4,0,31.5,13.9,31.5,31s-14.1,31-31.5,31-15.6,0-20.5,0h0Z"/>
          <path d="M133.2,370.2c-27.1,0-49.2-22.1-49.2-49.2s22.1-49.2,49.2-49.2,49.2,22.1,49.2,49.2-22.1,49.2-49.2,49.2ZM133.2,286.8c-18.8,0-34.2,15.3-34.2,34.2s15.3,34.2,34.2,34.2,34.2-15.3,34.2-34.2-15.3-34.2-34.2-34.2Z"/>
        </g>
      </g>
    </g>
  </g>
</svg>
