<?xml version="1.0" encoding="UTF-8"?>
<svg xmlns="http://www.w3.org/2000/svg" version="1.1" viewBox="0 0 512 512" style="fill: #7A4FBA">
  <!-- Generator: Adobe Illustrator 28.7.1, SVG Export Plug-In . SVG Version: 1.2.0 Build 142)  -->
  <g>
    <g id="Layer_1">
      <g>
        <path d="M433,262.6h-67c-4.1,0-7.5-3.4-7.5-7.5s3.4-7.5,7.5-7.5h67c35.3,0,64-28.7,64-64s-28.7-64-64-64h-11.7c-4.1,0-7.5-3.4-7.5-7.5s3.4-7.5,7.5-7.5h11.7c43.6,0,79,35.4,79,79s-35.4,79-79,79ZM321,119.6h-181.2c-4.1,0-7.5-3.4-7.5-7.5s3.4-7.5,7.5-7.5h181.2c4.1,0,7.5,3.4,7.5,7.5s-3.4,7.5-7.5,7.5Z"/>
        <rect x="223" y="407.6" width="128" height="15"/>
        <path d="M153,422.6h-65.5c-48.2,0-87.5-39.2-87.5-87.5s39.2-87.5,87.5-87.5h60.5c4.1,0,7.5,3.4,7.5,7.5s-3.4,7.5-7.5,7.5h-60.5c-40,0-72.5,32.5-72.5,72.5s32.5,72.5,72.5,72.5h65.5c4.1,0,7.5,3.4,7.5,7.5s-3.4,7.5-7.5,7.5ZM397.9,406.5c-4.1,0-7.5-3.4-7.5-7.5v-97.5c0-4.1,3.4-7.5,7.5-7.5s7.5,3.4,7.5,7.5v97.5c0,4.1-3.4,7.5-7.5,7.5ZM88.4,135.4c-1.9,0-3.8-.7-5.3-2.2-2.9-2.9-2.9-7.7,0-10.6l10.5-10.5-10.5-10.5c-2.9-2.9-2.9-7.7,0-10.6,2.9-2.9,7.7-2.9,10.6,0l15.8,15.8c1.4,1.4,2.2,3.3,2.2,5.3s-.8,3.9-2.2,5.3l-15.8,15.8c-1.5,1.5-3.4,2.2-5.3,2.2Z"/>
        <polygon points="378.6 163.1 363.6 163.1 363.6 111.2 318.1 84.9 325.6 71.9 371.1 98.2 416.6 71.9 424.1 84.9 378.6 111.2 378.6 163.1"/>
        <path d="M397.9,469.5c-30,0-54.4-24.4-54.4-54.4,0-7.4,1.5-14.7,4.4-21.5,1.6-3.8,6-5.6,9.9-3.9,3.8,1.6,5.6,6,3.9,9.9-2.1,4.9-3.2,10.2-3.2,15.6,0,21.7,17.7,39.4,39.4,39.4s39.4-17.7,39.4-39.4-17.7-39.4-39.4-39.4h0c-5.3,0-10.4,1-15.3,3.1-3.8,1.6-8.2-.2-9.8-4-1.6-3.8.2-8.2,4-9.8,6.7-2.8,13.8-4.3,21.1-4.3h0c30,0,54.4,24.4,54.4,54.4s-24.4,54.4-54.4,54.4ZM371.1,171.2c-2.5,0-4.9-.6-7.1-1.9l-9.7-5.6c-3.6-2.1-4.8-6.7-2.7-10.2,2.1-3.6,6.7-4.8,10.2-2.7l9.2,5.3,42.6-24.6v-49.2l-42.6-24.6-42.6,24.6v49.2l3,1.7c3.6,2.1,4.8,6.7,2.7,10.2-2.1,3.6-6.7,4.8-10.2,2.7l-3.4-2c-4.4-2.5-7.1-7.2-7.1-12.3v-50.2c0-5.1,2.7-9.8,7.1-12.3l43.5-25.1c4.4-2.5,9.8-2.5,14.2,0l43.5,25.1c4.4,2.5,7.1,7.2,7.1,12.3v50.2c0,5.1-2.7,9.8-7.1,12.3l-43.5,25.1c-2.2,1.3-4.6,1.9-7.1,1.9ZM92.9,166.6c-30,0-54.4-24.4-54.4-54.4,0-7.9,1.8-15.9,5.2-23.1,1.8-3.7,6.2-5.4,10-3.6,3.7,1.8,5.4,6.2,3.6,10-2.4,5.2-3.7,11-3.7,16.7,0,21.7,17.7,39.4,39.4,39.4s39.4-17.7,39.4-39.4-17.7-39.4-39.4-39.4h0c-4.8,0-9.6.9-14.1,2.6-3.9,1.5-8.2-.4-9.7-4.3s.4-8.2,4.3-9.7c6.2-2.4,12.8-3.6,19.5-3.6h0c30,0,54.4,24.4,54.4,54.4s-24.4,54.4-54.4,54.4Z"/>
        <path d="M88.5,378.1c-23.7,0-43-19.3-43-43s19.3-43,43-43,43,19.3,43,43-19.3,43-43,43ZM88.5,307.1c-15.4,0-28,12.6-28,28s12.6,28,28,28,28-12.6,28-28-12.6-28-28-28Z"/>
        <path d="M188,457.6c-23.4,0-42.5-19.1-42.5-42.5s19.1-42.5,42.5-42.5,42.5,19.1,42.5,42.5-19.1,42.5-42.5,42.5ZM188,387.6c-15.2,0-27.5,12.3-27.5,27.5s12.3,27.5,27.5,27.5,27.5-12.3,27.5-27.5-12.3-27.5-27.5-27.5Z"/>
        <path d="M397.9,438.7c-13,0-23.6-10.6-23.6-23.6s10.6-23.6,23.6-23.6,23.6,10.6,23.6,23.6-10.6,23.6-23.6,23.6ZM397.9,406.5c-4.7,0-8.6,3.9-8.6,8.6s3.9,8.6,8.6,8.6,8.6-3.9,8.6-8.6-3.9-8.6-8.6-8.6Z"/>
        <path d="M448,343.7h-50.1c-4.1,0-7.5-3.4-7.5-7.5v-32.4c0-7.3,6-13.3,13.3-13.3h44.3c7.3,0,13.3,6,13.3,13.3v26.6c0,7.3-6,13.3-13.3,13.3ZM405.4,328.7h40.9v-23.2h-40.9v23.2Z"/>
        <path d="M264.2,340.3h-16.3c-7.4,0-13.5-6-13.5-13.5v-8.7c-2.6-.9-5.2-2-7.6-3.2l-6.2,6.2c-2.5,2.5-5.9,3.9-9.5,3.9s-7-1.4-9.5-3.9l-11.6-11.6c-2.5-2.5-3.9-5.9-3.9-9.5s1.4-7,3.9-9.5l6.2-6.2c-1.2-2.5-2.3-5-3.2-7.6h-8.7c-7.4,0-13.5-6-13.5-13.5v-16.3c0-7.4,6-13.5,13.5-13.5h8.7c.9-2.6,2-5.2,3.2-7.6l-6.2-6.2c-2.5-2.5-3.9-5.9-3.9-9.5s1.4-7,3.9-9.5l11.6-11.6c5.2-5.2,13.8-5.2,19,0l6.2,6.2c2.5-1.2,5-2.3,7.6-3.2v-8.7c0-7.4,6-13.5,13.5-13.5h16.3c7.4,0,13.5,6,13.5,13.5v8.7c2.6.9,5.2,2,7.6,3.2l6.2-6.2c5.2-5.2,13.8-5.2,19,0l11.6,11.6c2.5,2.5,3.9,5.9,3.9,9.5s-1.4,7-3.9,9.5l-6.2,6.2c1.2,2.5,2.3,5,3.2,7.6h8.7c7.4,0,13.5,6,13.5,13.5v16.3c0,7.4-6,13.5-13.5,13.5h-8.7c-.9,2.6-2,5.2-3.2,7.6l6.2,6.2c2.5,2.5,3.9,5.9,3.9,9.5s-1.4,7-3.9,9.5l-11.6,11.6c-2.5,2.5-5.9,3.9-9.5,3.9s-7-1.4-9.5-3.9l-6.2-6.2c-2.5,1.2-5,2.3-7.6,3.2v8.7c0,7.4-6,13.5-13.5,13.5ZM249.4,325.3h13.3v-8.3c0-5.8,3.8-11,9.4-12.8,2.5-.8,5-1.9,7.4-3.1,5.2-2.7,11.5-1.7,15.7,2.4l5.9,5.9,9.4-9.4-5.9-5.9c-4.1-4.1-5.1-10.4-2.4-15.7,1.2-2.4,2.2-4.9,3.1-7.4,1.8-5.6,7-9.4,12.8-9.4h8.3v-13.3h-8.3c-5.8,0-11-3.8-12.8-9.4-.8-2.5-1.9-5-3.1-7.4-2.7-5.2-1.7-11.5,2.4-15.7l5.9-5.9-9.4-9.4-5.9,5.9c-4.1,4.1-10.4,5.1-15.7,2.4-2.4-1.2-4.9-2.2-7.4-3.1-5.6-1.8-9.4-7-9.4-12.8v-8.3h-13.3v8.3c0,5.8-3.8,11-9.4,12.8-2.5.8-5,1.9-7.4,3.1-5.2,2.7-11.5,1.7-15.7-2.4l-5.9-5.9-9.4,9.4,5.9,5.9c4.1,4.1,5.1,10.4,2.4,15.7-1.2,2.4-2.2,4.9-3.1,7.4-1.8,5.6-7,9.4-12.8,9.4h-8.3v13.3h8.3c5.8,0,11,3.8,12.8,9.4.8,2.5,1.9,5,3.1,7.4,2.7,5.2,1.7,11.5-2.4,15.7l-5.9,5.9,9.4,9.4,5.9-5.9c4.1-4.1,10.4-5.1,15.7-2.4,2.4,1.2,4.9,2.2,7.4,3.1,5.6,1.8,9.4,7,9.4,12.8v8.3ZM327.7,248.5h0,0Z"/>
        <path d="M256,286.9c-17.5,0-31.8-14.3-31.8-31.8s14.3-31.8,31.8-31.8,31.8,14.3,31.8,31.8-14.3,31.8-31.8,31.8ZM256,238.4c-9.2,0-16.8,7.5-16.8,16.8s7.5,16.8,16.8,16.8,16.8-7.5,16.8-16.8-7.5-16.8-16.8-16.8Z"/>
      </g>
    </g>
  </g>
</svg>
