<?xml version="1.0" encoding="UTF-8"?>
<svg xmlns="http://www.w3.org/2000/svg" version="1.1" viewBox="0 0 512 512" style="fill: #7A4FBA">
  <!-- Generator: Adobe Illustrator 28.7.1, SVG Export Plug-In . SVG Version: 1.2.0 Build 142)  -->
  <g>
    <g id="Layer_1">
      <g>
        <path d="M119.1,346.4c0-18.4-14.6-32.8-33.2-32.8s-33.2,14.4-33.2,32.8,14.6,32.8,33.2,32.8,33.2-15.2,33.2-32.8ZM68.9,346.4c0-9.6,7.3-16.8,17-16.8s17,7.2,17,16.8-7.3,16.8-17,16.8-17-8-17-16.8ZM459.3,76.8c0-18.4-14.6-32.8-33.2-32.8s-33.2,14.4-33.2,32.8,14.6,32.8,33.2,32.8,33.2-14.4,33.2-32.8ZM409.1,76.8c0-9.6,7.3-16.8,17-16.8s17,7.2,17,16.8-7.3,16.8-17,16.8-17-7.2-17-16.8Z"/>
        <path d="M281.1,211.2h145.8c1.6,0,3.2,0,5.7-2.4,8.1-8,79.4-80.8,79.4-124.8S473.1,0,426.1,0s-85.1,37.6-85.1,84,43.7,86.4,66.4,111.2h-126.4c-20.3,0-38.1,11.2-47,28.8-20.3,1.6-37.3,18.4-37.3,38.4s17.8,39.2,39.7,39.2,9.7-.8,13.8-2.4c14.6,14.4,33.2,21.6,53.5,21.6h45.4c34,0,62.4,24,68.1,56-20.3,1.6-36.5,18.4-36.5,38.4s6.5,23.2,15.4,30.4c-13,11.2-29.2,18.4-47,18.4h-54.3c-4.1-17.6-19.4-31.2-38.9-31.2s-34.8,13.6-38.9,31.2h-112.6c22.7-24.8,66.4-76.8,66.4-111.2s-38.1-84-85.1-84S0,307.2,0,353.6s71.3,116.8,79.4,124.8.8.8,1.6.8c1.6.8,3.2,1.6,4.9,1.6h131.2c4.1,17.6,19.4,31.2,38.9,31.2s34.8-13.6,38.9-31.2h54.3c23.5,0,46.2-9.6,62.4-27.2,2.4.8,5.7.8,8.9.8,21.9,0,39.7-17.6,39.7-39.2s-10.5-31.2-25.9-36.8c-4.9-42.4-41.3-74.4-85.1-74.4h-45.4c-14.6,0-28.4-5.6-38.9-15.2,7.3-7.2,11.3-16.8,11.3-28,0-16-10.5-30.4-25.1-36,6.5-7.2,17.8-13.6,30-13.6h0ZM426.1,16c38.1,0,68.9,30.4,68.9,68s-45.4,83.2-68.9,108c-23.5-24.8-68.9-78.4-68.9-108s30.8-68,68.9-68ZM85.9,285.6c38.1,0,68.9,30.4,68.9,68s-45.4,83.2-68.9,108c-23.5-24.8-68.9-78.4-68.9-108-.8-37.6,30.8-68,68.9-68ZM256,496c-13,0-23.5-10.4-23.5-23.2s10.5-23.2,23.5-23.2,23.5,10.4,23.5,23.2-10.5,23.2-23.5,23.2ZM443.1,416c0,12.8-10.5,23.2-23.5,23.2s-23.5-10.4-23.5-23.2,10.5-23.2,23.5-23.2,23.5,10.4,23.5,23.2ZM260.1,263.2c0,12.8-10.5,23.2-23.5,23.2s-23.5-10.4-23.5-23.2,10.5-23.2,23.5-23.2,23.5,10.4,23.5,23.2Z"/>
      </g>
    </g>
  </g>
</svg>
