<?xml version="1.0" encoding="UTF-8"?>
<svg xmlns="http://www.w3.org/2000/svg" version="1.1" viewBox="0 0 512 512" style="fill: #7A4FBA">
  <!-- Generator: Adobe Illustrator 28.7.1, SVG Export Plug-In . SVG Version: 1.2.0 Build 142)  -->
  <g>
    <g id="Layer_1">
      <path d="M346,319c-5.5,0-10,4.5-10,10v69c0,27.6-22.4,50-50,50h-108c-5.5,0-10,4.5-10,10v19.9s-23.9-23.9-23.9-23.9c-1.5-3.5-5.1-6-9.2-6h-65c-27.6,0-50-22.4-50-50v-154c0-27.6,22.4-50,50-50h101c5.5,0,10-4.5,10-10s-4.5-10-10-10h-101C31.4,174,0,205.4,0,244v154c0,38.6,31.4,70,70,70h59.9l41.1,41.1c1.9,1.9,4.5,2.9,7.1,2.9s2.6-.2,3.8-.8c3.7-1.5,6.2-5.2,6.2-9.2v-34h98c38.6,0,70-31.4,70-70v-69c0-5.5-4.5-10-10-10Z"/>
      <path d="M366.7,0h-25.3c-80.1,0-145.3,65.2-145.3,145.3s65.2,145.3,145.3,145.3h25.3c12.5,0,24.9-1.6,36.9-4.7l37.4,37.4c1.9,1.9,4.5,2.9,7.1,2.9s2.6-.2,3.8-.8c3.7-1.5,6.2-5.2,6.2-9.2v-57.9c15.8-12.8,29-29,38.2-47.1,10.5-20.5,15.8-42.7,15.8-66C512,65.2,446.8,0,366.7,0ZM442,245.5c-2.5,1.9-4,4.8-4,8v38.6l-24.5-24.5c-1.9-1.9-4.5-2.9-7.1-2.9s-2,.1-2.9.4c-11.9,3.7-24.3,5.5-36.9,5.5h-25.3c-69.1,0-125.3-56.2-125.3-125.3s56.2-125.3,125.3-125.3h25.3c69.1,0,125.3,56.2,125.3,125.3s-18.2,76.2-50,100.2Z"/>
      <path d="M399,109.4c-1.4-20.9-18.3-37.8-39.3-39.3-11.9-.8-23.2,3.2-31.9,11.3-8.5,8-13.5,19.3-13.5,31s4.5,10,10,10,10-4.5,10-10,2.5-12.1,7.1-16.3c4.6-4.3,10.6-6.4,16.8-5.9,11,.8,19.9,9.6,20.7,20.7.8,11.1-6.5,21-17.4,23.4-8.8,2-14.9,9.6-14.9,18.5v24c0,5.5,4.5,10,10,10s10-4.5,10-10v-23.2c20.1-4.9,33.7-23.3,32.2-44.1Z"/>
      <path d="M363.9,209.3c-1.9-1.9-4.4-2.9-7.1-2.9s-5.2,1.1-7.1,2.9c-1.9,1.9-2.9,4.4-2.9,7.1s1.1,5.2,2.9,7.1c1.9,1.9,4.4,2.9,7.1,2.9s5.2-1.1,7.1-2.9c1.9-1.9,2.9-4.4,2.9-7.1s-1.1-5.2-2.9-7.1Z"/>
      <path d="M275,310H64c-5.5,0-10,4.5-10,10s4.5,10,10,10h211c5.5,0,10-4.5,10-10s-4.5-10-10-10Z"/>
      <path d="M282.1,368.9c-1.9-1.9-4.4-2.9-7.1-2.9s-5.2,1.1-7.1,2.9c-1.9,1.9-2.9,4.4-2.9,7.1s1.1,5.2,2.9,7.1c1.9,1.9,4.4,2.9,7.1,2.9s5.2-1.1,7.1-2.9c1.9-1.9,2.9-4.4,2.9-7.1s-1.1-5.2-2.9-7.1Z"/>
      <path d="M235.7,366H64c-5.5,0-10,4.5-10,10s4.5,10,10,10h171.7c5.5,0,10-4.5,10-10s-4.5-10-10-10Z"/>
      <path d="M210,254H64c-5.5,0-10,4.5-10,10s4.5,10,10,10h146c5.5,0,10-4.5,10-10s-4.5-10-10-10Z"/>
    </g>
  </g>
</svg>
