<?xml version="1.0" encoding="UTF-8"?>
<svg id="Layer_1" data-name="Layer 1" xmlns="http://www.w3.org/2000/svg" version="1.1" viewBox="0 0 102 31">
  <defs>
    <style>
      .cls-1 {
        fill: #fff;
        stroke-width: 0px;
      }
    </style>
  </defs>
  <path class="cls-1" d="M12.48,13.14h9.61l.06,4.33c0,3.16-.59,5.19-1.78,6.1s-3.84,1.37-7.96,1.37c-3.77,0-6.28-.61-7.5-1.82s-1.84-3.69-1.84-7.44c0-4.78.25-7.79.74-9.05.61-1.54,1.53-2.57,2.77-3.1s3.34-.8,6.3-.8c3.88,0,6.39.41,7.52,1.24s1.7,2.66,1.7,5.49h-4.19c-.07-1.43-.39-2.32-.94-2.66s-1.93-.52-4.13-.52c-2.4,0-3.92.3-4.57.9s-.97,2-.97,4.21l-.02,2.19.03,2.8c0,2.16.32,3.54.96,4.13s2.12.89,4.45.89,3.7-.25,4.31-.75.92-1.68.92-3.55l.02-.9h-5.49v-3.06Z"/>
  <path class="cls-1" d="M27.9,2.92v3.06h-3.66v-3.06h3.66ZM27.9,9.46v15.29h-3.66v-15.29h3.66Z"/>
  <path class="cls-1" d="M30.77,24.75V2.92h3.66v8.73l.08.03c.63-1.61,2.22-2.42,4.78-2.42,2.2,0,3.7.54,4.52,1.61s1.22,3.06,1.22,5.96c0,3.17-.41,5.31-1.24,6.42s-2.41,1.67-4.76,1.67-3.94-.86-4.69-2.59h-.08l.16,2.42h-3.66ZM38.05,12.17c-2.38,0-3.57,1.48-3.57,4.43,0,2.31.2,3.8.61,4.45s1.32.98,2.75.98,2.45-.3,2.86-.9.62-1.98.62-4.13c0-2-.21-3.31-.62-3.92s-1.3-.91-2.66-.91Z"/>
  <path class="cls-1" d="M47.38,24.75V2.92h3.66v8.73l.08.03c.63-1.61,2.22-2.42,4.78-2.42,2.2,0,3.7.54,4.52,1.61s1.22,3.06,1.22,5.96c0,3.17-.41,5.31-1.24,6.42s-2.41,1.67-4.76,1.67-3.94-.86-4.69-2.59h-.08l.16,2.42h-3.66ZM54.65,12.17c-2.38,0-3.57,1.48-3.57,4.43,0,2.31.2,3.8.61,4.45s1.32.98,2.75.98,2.45-.3,2.86-.9.62-1.98.62-4.13c0-2-.21-3.31-.62-3.92s-1.3-.91-2.66-.91Z"/>
  <path class="cls-1" d="M70.7,9.29c2.95,0,4.89.47,5.81,1.42s1.38,2.94,1.38,5.97c0,3.39-.45,5.61-1.34,6.67s-2.78,1.58-5.66,1.58c-3.12,0-5.15-.49-6.07-1.47s-1.38-3.14-1.38-6.48.45-5.29,1.36-6.25,2.88-1.44,5.92-1.44ZM70.66,12.18c-1.52,0-2.5.27-2.91.82s-.62,1.83-.62,3.85c0,2.3.2,3.74.59,4.32s1.38.86,2.96.86,2.49-.3,2.89-.91.6-2.07.6-4.38c0-1.95-.21-3.2-.62-3.74s-1.38-.82-2.88-.82Z"/>
  <path class="cls-1" d="M80.21,9.46h3.63l-.14,2.58.08.02c.71-1.84,2.31-2.77,4.8-2.77,3.61,0,5.42,1.68,5.42,5.05v10.41h-3.66v-9.79l-.08-1.07c-.17-1.14-1.07-1.71-2.69-1.71-2.46,0-3.69,1.17-3.69,3.5v9.07h-3.66v-15.29Z"/>
</svg>