<?xml version="1.0" encoding="UTF-8"?>
<svg xmlns="http://www.w3.org/2000/svg" version="1.1" viewBox="0 0 84 65.5">
  <defs>
    <style>
      .cls-1 {
        fill: #985af5;
      }
    </style>
  </defs>
  <!-- Generator: Adobe Illustrator 28.7.1, SVG Export Plug-In . SVG Version: 1.2.0 Build 142)  -->
  <g>
    <g id="Layer_1">
      <g id="Layer_1-2" data-name="Layer_1">
        <g id="svg_5">
          <path id="svg_6" class="cls-1" d="M23.3,22.2c1.4,1.5,4,4.2,5.1,5.1,1,.9,3.6,3.3,4.2,4,.6.7,1.4,1.9,1.7,2s4.7,0,5.3,0,3,.9,4.3,1.2,5.1,1.2,6.7,1c1.6-.2,5.8-2.1,6.9-2.6,1.1-.5,4.8-2,6.4-2.6,1.6-.6,2.9-1,4.3-1.8s3.2-1.6,4.2-1.8c.9-.1,1.9-.1,2.4.2.4.3.4,1.3.3,2s-.5,1.4-.9,1.4-.8-.3-.6-.6c.2-.3,0-.8-.7-.6-.6.1-2,.4-2.6.6-.5.2-1.5,1.2-2.5,1.6-.9.4-4.6,2.3-6.3,3.5s-5,3.3-5.7,3.7c-.7.5-1,.4-2.2,1.1-1.3.8-2.7,1.8-3.8,2.2s-2.9.9-2.9.9c0,0,1.4.6,2.3.5.9,0,4,.5,5.4.9,1.4.5,4,3.5,4.9,3.6s1,.6,2.3,0c1.2-.7,2.7-1.4,4.5-2s4.1-1.5,4.5-1.6c.4,0,1.8,1,3.3,1.4s2.5.8,3,.8,2.1,0,2.3.6c.2.5.6.9.2,1-.4.2-.3.4-.8.3s-.9-.3-1.5.3c-.5.7-1.2.8-1.8.9-.7,0-1.1,0-2-.5s-2.2-1.1-2.8-.8-2.9,3-5.1,3.9c-2.2.9-4.6,1.5-6,1.2s-3.5-1.5-4.3-1.7c-.8-.3-2.4-.2-2.4-.2,0,0,3.7,2.7,5.1,3.2,1.4.6,4.7.9,5.9.8,1.2-.2,3.3-.9,4.1-.4s1,.6,1.2,1.2c0,.6,1,2,1.3,2.2.4.2,1.6,1,1.3,1.6-.3.6-1.6,1.4-2.4,1.1-.7-.3-1.4-1.3-2-1.8-.6-.6-1.1-.8-2-.4-1,.4-4.3,1.7-5.9,1.7s-5.1-.5-6.2-1.3-4.7-3.2-5.8-4.4-2-2.5-2.7-3.4-.4-1.8-1-2c-.7,0-5.5-1.1-7.2-1.6-1.7-.6-4.3-2.4-5.1-3.5-.8-1.1-1.5-1.5-1.9-1.5s-2,1.2-3.1.9-2-2.1-2.5-3.9c-.6-1.8-.7-2.4-.2-3s1.3-1.7,1.3-1.7c0,0-1.8-2.8-3-4.7-1.2-1.9-4.4-4.9-5.5-7.2-1-2.3-4.5-7.1-6.1-9.3s-3.1-4.7-3.8-5.1-2.6-1-2.7-1.6,0-1.1.2-1.3c.3,0,1.3,1,1.4.7s-1.1-1.7-1.5-1.9c-.4-.2-2-2.8-1.8-3.1s.8-.6,1-.7h1c.3,0,1-.5,1.1-.1,0,.3,1.7,2.6,1.9,3.2.2.6,1.5,2,2.2,2.8s1,1.5,1.7,2.3,4.4,4.9,6.2,6.9,4.3,4.3,5.8,6h0v.2Z"/>
        </g>
      </g>
    </g>
  </g>
</svg>